<svg xmlns="http://www.w3.org/2000/svg" width="320" height="320" viewBox="0 0 320 320">
  <defs>
    <pattern id="batik" width="160" height="160" patternUnits="userSpaceOnUse">
      <rect width="160" height="160" fill="transparent"/>
      <path d="M16 40c18-20 46-20 64 0s46 20 64 0" fill="none" stroke="rgba(255,255,255,0.06)" stroke-width="2" stroke-linecap="round"/>
      <path d="M16 80c18-20 46-20 64 0s46 20 64 0" fill="none" stroke="rgba(255,255,255,0.06)" stroke-width="2" stroke-linecap="round"/>
      <path d="M16 120c18-20 46-20 64 0s46 20 64 0" fill="none" stroke="rgba(255,255,255,0.06)" stroke-width="2" stroke-linecap="round"/>

      <path d="M40 24c0 10 8 18 18 18s18-8 18-18-8-18-18-18-18 8-18 18Z" fill="none" stroke="rgba(16,185,129,0.08)" stroke-width="2"/>
      <path d="M100 104c0 10 8 18 18 18s18-8 18-18-8-18-18-18-18 8-18 18Z" fill="none" stroke="rgba(245,158,11,0.08)" stroke-width="2"/>

      <path d="M0 0l160 160M160 0 0 160" stroke="rgba(255,255,255,0.03)" stroke-width="1"/>
      <path d="M80 0v160M0 80h160" stroke="rgba(255,255,255,0.025)" stroke-width="1"/>
      <path d="M24 56c16 0 16 16 32 16s16-16 32-16 16 16 32 16 16-16 32-16" fill="none" stroke="rgba(255,255,255,0.04)" stroke-width="1.5" stroke-linecap="round"/>
    </pattern>
  </defs>
  <rect width="100%" height="100%" fill="url(#batik)"/>
</svg>
