<?xml version="1.0" encoding="UTF-8"?>
<svg version="1.1" xmlns="http://www.w3.org/2000/svg" width="500" height="500">
<path d="M0 0 C0.7966281 -0.00384115 1.59325619 -0.00768229 2.41402453 -0.01163983 C3.2833703 -0.01077335 4.15271607 -0.00990687 5.04840565 -0.00901413 C6.44058197 -0.01347081 6.44058197 -0.01347081 7.86088306 -0.01801753 C10.97831605 -0.02670567 14.09571065 -0.02821289 17.21315479 -0.02970505 C19.44541983 -0.03433317 21.67768407 -0.03935782 23.9099474 -0.04475021 C29.98036887 -0.0578775 36.05077927 -0.06431992 42.12121272 -0.06876087 C45.91372594 -0.0716913 49.70623613 -0.07579607 53.49874783 -0.08026505 C64.0048068 -0.09237428 74.51086398 -0.10275599 85.01692963 -0.10614014 C85.68914045 -0.1063597 86.36135127 -0.10657927 87.05393212 -0.10680549 C87.72772873 -0.10702377 88.40152533 -0.10724204 89.09574002 -0.10746694 C90.46105015 -0.1079104 91.82636029 -0.10835696 93.19167042 -0.10880661 C94.20752647 -0.10913875 94.20752647 -0.10913875 95.24390487 -0.10947761 C106.21129661 -0.11342347 117.17862183 -0.13087132 128.14598789 -0.15416613 C139.41351271 -0.17790471 150.68100535 -0.19008539 161.94855911 -0.19150805 C168.27181446 -0.19255604 174.594976 -0.19846252 180.91820812 -0.21632767 C186.86814305 -0.23281081 192.81791365 -0.23496255 198.76786327 -0.22618866 C200.94910593 -0.2254184 203.13035742 -0.22975952 205.3115778 -0.23964691 C208.29493086 -0.25237485 211.27770271 -0.24648473 214.26105213 -0.23606491 C215.11924429 -0.24412132 215.97743645 -0.25217772 216.86163443 -0.26047826 C225.76730892 -0.18799535 232.74459411 2.0855222 239.2456255 8.23689651 C245.31347295 14.89505492 246.09448884 21.74089248 246.10590076 30.51199722 C246.10816632 31.23356245 246.11043188 31.95512767 246.11276609 32.69855851 C246.11907225 35.10499041 246.11827891 37.5113655 246.11745167 39.91780472 C246.12044528 41.64790799 246.12384827 43.3780106 246.12762928 45.10811234 C246.1364531 49.80036402 246.13880672 54.49259747 246.13944507 59.18485665 C246.14015651 62.11872627 246.14229262 65.05259127 246.14494228 67.98645973 C246.15419047 78.22838891 246.15827784 88.47030509 246.15749073 98.71223831 C246.15689013 108.24841712 246.16743978 117.78453932 246.18323439 127.3207038 C246.19632456 135.51707865 246.201674 143.71343504 246.20103532 151.90982026 C246.20078076 156.80109058 246.20360878 161.6923106 246.21421337 166.58357048 C246.22391915 171.18579967 246.22395655 175.7879307 246.21669674 180.39016342 C246.21565397 182.07473711 246.21799546 183.75931698 246.2240572 185.44388008 C246.27047178 199.24133762 245.72999958 209.15812142 235.722188 219.44392776 C228.78636332 223.700002 221.19572752 224.57538235 213.21240711 224.51237869 C212.28324657 224.51705866 211.35408603 224.52173864 210.39676911 224.52656043 C207.31165215 224.53843929 204.22698527 224.52908114 201.14186573 224.51961136 C198.91856599 224.52368019 196.69526828 224.52902381 194.47197437 224.53554153 C188.45350843 224.54918302 182.43519728 224.54392971 176.41672873 224.53440428 C170.1095325 224.52679225 163.80234924 224.53385749 157.49515247 224.53856277 C146.22821705 224.54436434 134.96134526 224.53506095 123.69442482 224.51978476 C113.49181178 224.50637963 103.28930115 224.50871414 93.08668995 224.52254105 C81.21870176 224.53861755 69.3507631 224.5445602 57.48276192 224.53570426 C51.2076764 224.53103322 44.93266134 224.53038738 38.65758038 224.54031372 C32.75843265 224.54899418 26.85947792 224.54294152 20.96035099 224.52563095 C18.79846167 224.52167209 16.63655605 224.52278983 14.47467327 224.52941895 C11.51789302 224.53764806 8.56172666 224.52729618 5.60498524 224.51237869 C4.75477674 224.51907086 3.90456825 224.52576302 3.02859586 224.53265798 C-5.85434882 224.44606 -12.8081302 222.1517903 -19.3012495 216.03377151 C-24.8943984 209.87118438 -26.17841611 203.89947102 -26.1682539 195.79481888 C-26.17122502 195.05383918 -26.17419614 194.31285947 -26.1772573 193.54942584 C-26.18593208 191.06535515 -26.18745152 188.58133272 -26.18894482 186.09724808 C-26.19357387 184.31655652 -26.19859865 182.53586596 -26.20398998 180.75517654 C-26.21710795 175.91618798 -26.22355782 171.07721329 -26.22800064 166.23820972 C-26.23093246 163.2142385 -26.23503749 160.19027105 -26.23950481 157.16630173 C-26.25317843 147.70281786 -26.26284564 138.23934264 -26.26670671 128.77584958 C-26.27118665 117.85577727 -26.28873221 106.93583018 -26.3177073 96.01579595 C-26.33933247 87.57234543 -26.34941144 79.12893013 -26.35074782 70.68545222 C-26.35179529 65.64380755 -26.3576907 60.60228062 -26.37556744 55.56066513 C-26.39206242 50.81644037 -26.39419667 46.07242165 -26.38542843 41.32817841 C-26.38465881 39.58996783 -26.38899087 37.85174611 -26.39888668 36.11356354 C-26.41163542 33.73412248 -26.40571393 31.35540802 -26.39530468 28.97597122 C-26.40336108 28.29384984 -26.41141749 27.61172846 -26.41971803 26.90893674 C-26.3380011 18.88040459 -23.39163564 12.71113906 -17.996562 6.89314651 C-12.93353764 2.36254336 -6.7732886 0.01230361 0 0 Z M28.972188 37.25642776 C27.982188 37.87517776 26.992188 38.49392776 25.972188 39.13142776 C25.972188 39.79142776 25.972188 40.45142776 25.972188 41.13142776 C25.312188 41.13142776 24.652188 41.13142776 23.972188 41.13142776 C22.63488814 42.70838677 22.63488814 42.70838677 21.409688 44.75642776 C20.97527393 45.42931839 20.54085987 46.10220901 20.09328175 46.79549026 C17.21664928 52.78930982 17.82407507 59.66909465 17.82692432 66.16633987 C17.82356571 67.26787903 17.8202071 68.36941818 17.81674671 69.50433731 C17.8072616 73.13916024 17.80529494 76.77393699 17.80421925 80.40877151 C17.8010054 82.93933506 17.79764122 85.46989842 17.79413319 88.00046158 C17.78814833 93.30217876 17.78624978 98.60387878 17.78688526 103.90559769 C17.7874861 110.02224534 17.77692915 116.13880482 17.7611416 122.25543016 C17.74646196 128.15434571 17.74289793 134.05323445 17.74349499 139.95216942 C17.74231556 142.45557452 17.73789584 144.95898029 17.73016262 147.46237373 C17.72035693 150.96403056 17.72324305 154.46546058 17.72926807 157.96712112 C17.72364857 158.99851212 17.71802906 160.02990311 17.71223927 161.09254837 C17.74269231 168.06358913 18.37728522 173.99308656 22.097188 180.06892776 C23.025313 181.58486526 23.025313 181.58486526 23.972188 183.13142776 C24.632188 183.13142776 25.292188 183.13142776 25.972188 183.13142776 C25.972188 183.79142776 25.972188 184.45142776 25.972188 185.13142776 C27.51293929 186.47061083 27.51293929 186.47061083 29.534688 187.69392776 C30.19597706 188.12834183 30.85726612 188.56275589 31.53859425 189.01033401 C38.44684958 192.19278872 46.79541725 191.27290381 54.21608448 191.2608223 C55.55387386 191.26217903 56.89166287 191.2639605 58.22945118 191.26613235 C61.84723641 191.2706747 65.46499299 191.2689302 69.08277869 191.26575327 C72.87868464 191.26321259 76.67458822 191.26557201 80.47049427 191.26713943 C86.8448426 191.26895637 93.21917932 191.26656754 99.59352589 191.26179886 C106.94903635 191.25635949 114.30451908 191.25811845 121.66002887 191.26362526 C127.9889075 191.26817274 134.3177778 191.26879887 140.64665753 191.26618659 C144.42059728 191.26463252 148.19452404 191.26440612 151.96846294 191.26772308 C155.51844922 191.2706255 159.06839998 191.26858277 162.61838245 191.26282883 C164.53238343 191.26088968 166.44638743 191.26383508 168.36038685 191.26695633 C179.82548291 191.2389319 187.06547362 190.88657086 195.722188 182.69392776 C202.78235829 175.36938986 202.12185129 165.98599402 202.11745167 156.38191605 C202.12081028 155.32245773 202.12416889 154.26299942 202.12762928 153.17143631 C202.13710055 149.68152559 202.1390804 146.19166303 202.14015675 142.70174026 C202.14337172 140.2670782 202.14673598 137.83241633 202.15024281 135.39775467 C202.15622432 130.29872057 202.15808368 125.1997034 202.15749073 120.10066605 C202.15738911 113.57859319 202.17104615 107.0566292 202.18826294 100.53458214 C202.19940021 95.50730774 202.20140941 90.48005952 202.200881 85.45277405 C202.20205832 83.04870986 202.20646614 80.64464495 202.21421337 78.24059296 C202.22404902 74.87356128 202.22112111 71.50676429 202.21510792 68.13972855 C202.22072742 67.15450211 202.22634693 66.16927567 202.23213673 65.15419388 C202.1857077 54.88418203 200.80524654 47.05851455 193.597188 39.44392776 C187.68503295 33.730084 181.08812879 33.01113638 173.06548023 32.997715 C171.32872028 32.99131752 171.32872028 32.99131752 169.55687428 32.9847908 C168.30061237 32.98524399 167.04435047 32.98569717 165.75002003 32.98616409 C164.4025256 32.98316919 163.05503202 32.97976589 161.70753956 32.97598648 C158.05870913 32.96717646 154.40990218 32.96480964 150.76106215 32.96417069 C148.47847756 32.96345854 146.19589889 32.9613211 143.91331577 32.95867348 C135.94188783 32.94943029 127.97047659 32.94533734 119.99904346 32.94612503 C112.58161689 32.94672569 105.16426307 32.93617355 97.7468549 32.92038137 C91.36704039 32.90728482 84.9872496 32.90194201 78.60742176 32.90258044 C74.80214653 32.90283479 70.99693601 32.9000186 67.19167423 32.88940239 C63.6113051 32.87968563 60.03106207 32.87966661 56.45068836 32.88691902 C54.51997227 32.88845469 52.5892561 32.88014335 50.65855885 32.87147903 C42.98944724 32.89912713 35.67694691 33.06595344 28.972188 37.25642776 Z " fill="#0A6D61" transform="translate(140.02781200408936,137.86857223510742)"/>
<path d="M0 0 C0.66 0.33 1.32 0.66 2 1 C3.05763553 5.46147445 3.12776746 9.81105602 3.13371277 14.38056946 C3.13597833 15.10213468 3.13824388 15.82369991 3.14057809 16.56713074 C3.14688425 18.97356264 3.14609091 21.37993773 3.14526367 23.78637695 C3.14825728 25.51648023 3.15166028 27.24658284 3.15544128 28.97668457 C3.16426511 33.66893626 3.16661872 38.3611697 3.16725707 43.05342889 C3.16796851 45.9872985 3.17010462 48.9211635 3.17275429 51.85503197 C3.18200248 62.09696115 3.18608985 72.33887733 3.18530273 82.58081055 C3.18470214 92.11698935 3.19525178 101.65311155 3.2110464 111.18927604 C3.22413656 119.38565089 3.22948601 127.58200727 3.22884732 135.77839249 C3.22859276 140.66966282 3.23142079 145.56088283 3.24202538 150.45214272 C3.25173115 155.05437191 3.25176855 159.65650294 3.24450874 164.25873566 C3.24346597 165.94330934 3.24580746 167.62788922 3.2518692 169.31245232 C3.29828378 183.10990986 2.75781158 193.02669365 -7.25 203.3125 C-14.18582467 207.56857423 -21.77646048 208.44395458 -29.75978088 208.38095093 C-30.68894143 208.3856309 -31.61810197 208.39031087 -32.57541889 208.39513266 C-35.66053585 208.40701152 -38.74520273 208.39765337 -41.83032227 208.38818359 C-44.053622 208.39225242 -46.27691972 208.39759605 -48.50021362 208.40411377 C-54.51867957 208.41775525 -60.53699071 208.41250195 -66.55545926 208.40297651 C-72.86265549 208.39536448 -79.16983875 208.40242973 -85.47703552 208.40713501 C-96.74397094 208.41293658 -108.01084274 208.40363319 -119.27776318 208.388357 C-129.48037622 208.37495186 -139.68288685 208.37728638 -149.88549805 208.39111328 C-161.75348624 208.40718978 -173.62142489 208.41313244 -185.48942608 208.40427649 C-191.76451159 208.39960545 -198.03952666 208.39895962 -204.31460762 208.40888596 C-210.21375535 208.41756642 -216.11271008 208.41151376 -222.01183701 208.39420319 C-224.17372632 208.39024433 -226.33563195 208.39136206 -228.49751472 208.39799118 C-231.45429498 208.40622029 -234.41046134 208.39586841 -237.36720276 208.38095093 C-238.21741125 208.38764309 -239.06761974 208.39433526 -239.94359213 208.40123022 C-245.61959797 208.34589602 -250.84451963 207.50103276 -256 205 C-256.33 204.34 -256.66 203.68 -257 203 C-255.56637005 203.48714289 -255.56637005 203.48714289 -254.10377789 203.98412704 C-249.50882691 205.28732744 -245.0881124 205.27794701 -240.33955383 205.25396729 C-239.38492742 205.25708727 -238.43030101 205.26020725 -237.44674653 205.26342177 C-234.25780996 205.27137953 -231.06906484 205.2650868 -227.88012695 205.25878906 C-225.59004607 205.26149985 -223.29996606 205.26506128 -221.0098877 205.26940918 C-214.79740009 205.27852339 -208.58497893 205.27499328 -202.37249017 205.26865101 C-195.87342159 205.26358788 -189.37435871 205.26828316 -182.87528992 205.27142334 C-171.26582499 205.27529428 -159.65639042 205.2690806 -148.04693028 205.25890467 C-137.51979728 205.24996322 -126.99270838 205.25152705 -116.46557617 205.26074219 C-104.23582191 205.27144276 -92.00609903 205.27543104 -79.77634019 205.26951766 C-73.30408716 205.26639633 -66.83186451 205.26599328 -60.35961342 205.27259064 C-54.27834922 205.27835664 -48.19716854 205.27438086 -42.11591339 205.26280212 C-39.88097205 205.2601519 -37.64602371 205.26092678 -35.41108513 205.26532745 C-32.36712609 205.27076978 -29.32343695 205.26396473 -26.27949524 205.25396729 C-24.94424812 205.26065945 -24.94424812 205.26065945 -23.5820263 205.26748681 C-22.3591086 205.25966357 -22.3591086 205.25966357 -21.11148548 205.25168228 C-20.05775752 205.25119522 -20.05775752 205.25119522 -18.98274213 205.25069833 C-16.61813525 204.95171694 -15.02523117 204.24424696 -13 203 C-12.67 202.34 -12.34 201.68 -12 201 C-6.47058824 197 -6.47058824 197 -4 197 C-3.8453125 195.88625 -3.8453125 195.88625 -3.6875 194.75 C-3 192 -3 192 -1.47957897 190.30426407 C0.59192501 187.07814888 0.40580251 184.09191602 0.36076355 180.3817749 C0.36332682 179.61064936 0.3658901 178.83952382 0.36853105 178.04503083 C0.37347546 175.45917033 0.35696544 172.87389272 0.34057617 170.28808594 C0.33973004 168.43530287 0.34020477 166.58251881 0.34190369 164.72973633 C0.34276561 159.69698798 0.32510792 154.66445346 0.30418181 149.63175488 C0.28544787 144.37334968 0.28366716 139.11493977 0.28010559 133.85650635 C0.27077548 123.8976222 0.24614859 113.93883666 0.21605712 103.97999597 C0.18254321 92.64276883 0.16603467 81.30553702 0.15097082 69.96827269 C0.1195999 46.64546042 0.06682059 23.32273573 0 0 Z " fill="#04171A" transform="translate(383,154)"/>
<path d="M0 0 C0.99 0.495 0.99 0.495 2 1 C3.06236863 5.47636835 3.1277892 9.84273344 3.13371277 14.42767334 C3.1371111 15.51742962 3.1371111 15.51742962 3.14057809 16.62920117 C3.14688428 19.05197081 3.14609093 21.47468403 3.14526367 23.89746094 C3.1482571 25.63892183 3.15166005 27.38038207 3.15544128 29.12184143 C3.16426245 33.8425478 3.16661848 38.56323604 3.16725707 43.28394985 C3.16820729 47.22330963 3.17188653 51.1626652 3.17542917 55.10202336 C3.183565 64.3897951 3.18601403 73.67755714 3.18530273 82.96533203 C3.18470076 92.55731753 3.19527839 102.14924702 3.2110464 111.74121833 C3.22409811 119.97315224 3.2294877 128.20506777 3.22884732 136.43701196 C3.22859183 141.35544573 3.23147203 146.27382962 3.24202538 151.19225311 C3.25166763 155.81169678 3.25181237 160.43104241 3.24450874 165.05048943 C3.24345836 166.74929128 3.24585245 168.44809912 3.2518692 170.14689064 C3.25952781 172.45813148 3.2549857 174.76902839 3.24723816 177.08026123 C3.24778293 178.3758836 3.24832769 179.67150597 3.24888897 181.00638962 C3 184 3 184 1 186 C-0.17016955 182.48949134 -0.13537545 179.34279435 -0.12025452 175.69184875 C-0.12110894 174.9419954 -0.12196337 174.19214204 -0.12284368 173.41956586 C-0.12449449 170.89988505 -0.11898362 168.38027041 -0.11352539 165.8605957 C-0.11324341 164.05722047 -0.11340147 162.25384513 -0.1139679 160.45046997 C-0.11425543 155.5479014 -0.10836572 150.64535718 -0.10139394 145.74279428 C-0.09515317 140.62184029 -0.09455603 135.50088579 -0.09336853 130.37992859 C-0.09025736 120.67958966 -0.08204683 110.97926196 -0.07201904 101.27892798 C-0.06085128 90.23674838 -0.05534578 79.19456824 -0.05032361 68.1523844 C-0.03986406 45.4349167 -0.02226873 22.71745898 0 0 Z " fill="#0A3339" transform="translate(383,154)"/>
<path d="M0 0 C1.77882627 3.0744753 2.25930859 5.3248661 2.29866028 8.86222839 C2.31415924 9.83917664 2.3296582 10.81612488 2.34562683 11.82267761 C2.35250015 12.88819351 2.35937347 13.95370941 2.36645508 15.05151367 C2.38131958 16.1788089 2.39618408 17.30610413 2.41149902 18.46755981 C2.45774502 22.2009928 2.4893119 25.93437391 2.51953125 29.66796875 C2.54586413 32.26386432 2.57261861 34.85975564 2.59977722 37.4556427 C2.65424776 42.90211518 2.70114462 48.3485834 2.74291992 53.79516602 C2.79128213 60.07437632 2.8581355 66.35319777 2.93408471 72.63212985 C3.0065301 78.68685089 3.06173375 84.74159859 3.11032677 90.7965641 C3.13302237 93.3653466 3.16057521 95.93409103 3.19312477 98.50276756 C3.23699291 102.10240457 3.26117921 105.70167234 3.28051758 109.30151367 C3.29751205 110.35690842 3.31450653 111.41230316 3.33201599 112.49967957 C3.34392307 120.92955172 1.83458377 129.28051228 -3.625 136 C-6.80049333 138.67409965 -10.25590102 140.25957899 -14 142 C-14.52303711 142.34442139 -15.04607422 142.68884277 -15.58496094 143.04370117 C-19.20337734 144.47650921 -22.80695025 144.26458954 -26.640625 144.23046875 C-27.48163757 144.23001053 -28.32265015 144.22955231 -29.18914795 144.2290802 C-30.9677471 144.22606252 -32.74634372 144.21819068 -34.52490234 144.20581055 C-37.22633402 144.18765902 -39.92742018 144.18530034 -42.62890625 144.18554688 C-44.36198209 144.18062689 -46.09505563 144.17479649 -47.828125 144.16796875 C-48.62736389 144.16685593 -49.42660278 144.1657431 -50.25006104 144.16459656 C-51.01735535 144.15821671 -51.78464966 144.15183685 -52.57519531 144.14526367 C-53.56969696 144.13954597 -53.56969696 144.13954597 -54.58428955 144.13371277 C-56.62192886 144.02092674 -58.65164467 143.77646476 -60.67396545 143.50276184 C-65.33456661 142.89887019 -69.94668783 142.83336132 -74.64135742 142.81054688 C-75.57083694 142.80225357 -76.50031647 142.79396027 -77.45796204 142.78541565 C-79.46256564 142.76810908 -81.46718841 142.7529173 -83.47182274 142.73963928 C-86.64535464 142.71848412 -89.81878998 142.69147505 -92.99226379 142.66296387 C-100.8684706 142.59338912 -108.74474657 142.53372244 -116.62103271 142.47393799 C-123.28994779 142.42296312 -129.95880932 142.36814112 -136.62764931 142.30812073 C-139.75241623 142.28159425 -142.87718839 142.26075628 -146.0019989 142.2401123 C-147.91694379 142.22350833 -149.83188639 142.20663641 -151.74682617 142.18945312 C-153.04751541 142.1831765 -153.04751541 142.1831765 -154.3744812 142.17677307 C-158.37694972 142.13518866 -162.09386848 141.99226578 -166 141 C-166 140.67 -166 140.34 -166 140 C-165.27039063 140.00092179 -164.54078125 140.00184359 -163.7890625 140.00279331 C-146.0193254 140.02489729 -128.24959106 140.04143533 -110.47984314 140.05181217 C-101.88645941 140.05696397 -93.29308486 140.0639854 -84.69970703 140.07543945 C-77.20794481 140.0854204 -69.71618924 140.09186155 -62.22442055 140.09408849 C-58.25922445 140.09538981 -54.2940474 140.09843896 -50.32885742 140.10573006 C-46.59265385 140.1125441 -42.85647707 140.11460604 -39.12026787 140.11310768 C-37.10361768 140.11351168 -35.08697037 140.11887872 -33.07032776 140.12442017 C-21.84121919 140.11170728 -14.29325962 140.06922641 -5.75 132.0625 C1.12423409 124.88314325 0.14482648 114.77084861 0.11352539 105.46508789 C0.11374443 103.75180298 0.11374443 103.75180298 0.1139679 102.00390625 C0.11327343 98.24347 0.10550286 94.48308381 0.09765625 90.72265625 C0.09579042 88.10949226 0.09436729 85.49632792 0.09336853 82.88316345 C0.09026759 76.7174681 0.08207095 70.5517906 0.07201904 64.38610309 C0.06081939 57.36310227 0.05533776 50.34010056 0.05032361 43.31709301 C0.03988725 28.87805283 0.02231187 14.43902666 0 0 Z " fill="#063339" transform="translate(341,188)"/>
<path d="M0 0 C0.66 0.33 1.32 0.66 2 1 C1.67468292 1.8924794 1.34936584 2.7849588 1.01419067 3.70448303 C-0.56621205 9.28685117 -0.26181838 14.97233402 -0.22705078 20.72827148 C-0.22748886 22.63175102 -0.22748886 22.63175102 -0.22793579 24.57368469 C-0.22850728 28.03602707 -0.21678627 31.49822957 -0.20278788 34.96053958 C-0.19024629 38.58534448 -0.18910732 42.21015294 -0.18673706 45.8349762 C-0.18053234 52.69130512 -0.16413522 59.5475699 -0.14403808 66.40387064 C-0.12164764 74.21282336 -0.11067776 82.02177922 -0.10064721 89.83075607 C-0.07976805 105.88720819 -0.04461176 121.9435959 0 138 C-2.81645055 134.82682284 -3.37593499 132.82255257 -3.38095093 128.6105957 C-3.3894104 127.51703766 -3.39786987 126.42347961 -3.40658569 125.29678345 C-3.400513 124.10185272 -3.39444031 122.906922 -3.38818359 121.67578125 C-3.39344055 120.41365814 -3.39869751 119.15153503 -3.40411377 117.85116577 C-3.41778515 114.39247871 -3.41248962 110.93406024 -3.40297651 107.4753685 C-3.39537893 103.85507231 -3.4024258 100.23479905 -3.40713501 96.61450195 C-3.41259229 90.53495151 -3.40540174 84.45551041 -3.39111328 78.37597656 C-3.37478674 71.34812691 -3.38007527 64.32053837 -3.3965925 57.29269505 C-3.41020821 51.25775957 -3.41212663 45.22290268 -3.40427649 39.18795681 C-3.39960041 35.58397072 -3.39897324 31.98010735 -3.40888596 28.37612915 C-3.41916418 24.35866848 -3.40491691 20.34165765 -3.38818359 16.32421875 C-3.39425629 15.12928802 -3.40032898 13.9343573 -3.40658569 12.70321655 C-3.39389648 11.06287949 -3.39389648 11.06287949 -3.38095093 9.3894043 C-3.37981985 8.43962204 -3.37868877 7.48983978 -3.37752342 6.51127625 C-2.93693603 3.58050006 -1.94563066 2.19206077 0 0 Z " fill="#228977" transform="translate(118,154)"/>
<path d="M0 0 C1.8703022 -0.36914349 1.8703022 -0.36914349 4.18875122 -0.36076355 C5.50548325 -0.36694954 5.50548325 -0.36694954 6.84881592 -0.3732605 C8.2967453 -0.35708176 8.2967453 -0.35708176 9.77392578 -0.34057617 C11.29592087 -0.34123329 11.29592087 -0.34123329 12.84866333 -0.34190369 C16.2144064 -0.33980772 19.57965607 -0.31643831 22.9453125 -0.29296875 C25.27415698 -0.28737568 27.60300498 -0.28310422 29.93185425 -0.28010559 C36.07059421 -0.26863413 42.20912227 -0.23914705 48.34777832 -0.20599365 C54.60812513 -0.17534237 60.86850608 -0.16161083 67.12890625 -0.14648438 C79.41936409 -0.11427964 91.70966445 -0.06305547 104 0 C104 0.33 104 0.66 104 1 C55.985 1.495 55.985 1.495 7 2 C7 2.66 7 3.32 7 4 C-1.07038123 8.12903226 -1.07038123 8.12903226 -4 9 C-4.99 8.34 -5.98 7.68 -7 7 C-7 6.34 -7 5.68 -7 5 C-6.21625 4.731875 -5.4325 4.46375 -4.625 4.1875 C-1.71885077 3.15185568 -1.71885077 3.15185568 0 0 Z " fill="#1D8070" transform="translate(168,169)"/>
<path d="M0 0 C0.33 0 0.66 0 1 0 C0.99815641 0.60499801 0.99631283 1.20999601 0.99441338 1.83332729 C0.95016494 16.58243937 0.91710974 31.33154751 0.89637566 46.08071041 C0.88608124 53.21341784 0.87205615 60.34608085 0.84912109 67.47875977 C0.82913086 73.69860079 0.81627024 79.91840962 0.81182301 86.13828188 C0.80922513 89.42893859 0.80209402 92.71948225 0.78853989 96.01011467 C0.77398151 99.69161265 0.77202391 103.37292114 0.77294922 107.05444336 C0.76575867 108.13482376 0.75856812 109.21520416 0.75115967 110.32832336 C0.7679851 116.5317315 1.42283507 121.99505062 3 128 C2.01 128 1.02 128 0 128 C-0.97899495 121.46887261 -1.14211879 115.10483983 -1.12939453 108.50683594 C-1.13114685 107.38067871 -1.13289917 106.25452148 -1.13470459 105.09423828 C-1.13908768 101.39093461 -1.13619839 97.68767911 -1.1328125 93.984375 C-1.13348637 91.40464265 -1.13445709 88.82491036 -1.13571167 86.24517822 C-1.13718368 80.84866673 -1.1351453 75.45217322 -1.13037109 70.05566406 C-1.12491884 63.82078892 -1.12670106 57.58594644 -1.1321975 51.35107207 C-1.13728299 45.34108132 -1.13674426 39.33110654 -1.13381577 33.32111359 C-1.1331481 30.76778407 -1.13396934 28.21445373 -1.13629532 25.66112518 C-1.138829 22.09925612 -1.13497156 18.53745028 -1.12939453 14.97558594 C-1.13141876 13.91784973 -1.13344299 12.86011353 -1.13552856 11.77032471 C-1.13270874 10.80034546 -1.12988892 9.83036621 -1.12698364 8.83099365 C-1.12660662 7.98964748 -1.12622959 7.14830132 -1.12584114 6.28145981 C-1.00334273 4.06060258 -0.61764602 2.13143575 0 0 Z " fill="#01443F" transform="translate(158,188)"/>
<path d="M0 0 C0.33 0 0.66 0 1 0 C0.67990731 7.6822245 -3.03391128 12.25094216 -8.5625 17.375 C-12.62880436 20.08586958 -16.08957062 21.25282548 -20.97387695 21.22705078 C-22.41480461 21.22682419 -22.41480461 21.22682419 -23.88484192 21.22659302 C-24.9089769 21.21627045 -25.93311188 21.20594788 -26.98828125 21.1953125 C-28.04661667 21.1924826 -29.10495209 21.18965271 -30.19535828 21.18673706 C-33.56785498 21.1755629 -36.94008387 21.15046307 -40.3125 21.125 C-42.6022097 21.11496664 -44.89192357 21.10584141 -47.18164062 21.09765625 C-52.78785143 21.0756326 -58.39390658 21.04218236 -64 21 C-64 20.67 -64 20.34 -64 20 C-63.43259094 19.99191315 -62.86518188 19.98382629 -62.28057861 19.97549438 C-56.37562625 19.88944543 -50.47100945 19.78994162 -44.56640625 19.68261719 C-42.36268753 19.64433114 -40.15890639 19.60947763 -37.95507812 19.578125 C-34.78753348 19.5324667 -31.62041838 19.47447298 -28.453125 19.4140625 C-27.46757629 19.40251129 -26.48202759 19.39096008 -25.46661377 19.37905884 C-24.5459613 19.35918915 -23.62530884 19.33931946 -22.67675781 19.31884766 C-21.46430389 19.29886215 -21.46430389 19.29886215 -20.22735596 19.2784729 C-17.74315437 18.96788814 -16.11816265 18.32229059 -14 17 C-13.67 16.34 -13.34 15.68 -13 15 C-7.47058824 11 -7.47058824 11 -5 11 C-4.9175 10.29875 -4.835 9.5975 -4.75 8.875 C-3.82525487 5.33014368 -2.17522143 2.92295379 0 0 Z " fill="#062530" transform="translate(384,340)"/>
<path d="M0 0 C3.81708422 3.81708422 2.95898123 10.46277969 3.04275513 15.6446228 C3.02121415 18.25845935 2.95882734 20.86778305 2.87890625 23.48046875 C2.85529526 24.41933426 2.83168427 25.35819977 2.80735779 26.32551575 C2.73171128 29.27970383 2.64727087 32.23356115 2.5625 35.1875 C2.50917976 37.20896901 2.45644035 39.23045342 2.40429688 41.25195312 C2.27623295 46.16817212 2.14029024 51.08411533 2 56 C0 54 0 54 -0.24050903 51.70944214 C-0.23606781 50.75457916 -0.23162659 49.79971619 -0.22705078 48.81591797 C-0.22689972 47.73494843 -0.22674866 46.65397888 -0.22659302 45.54025269 C-0.21627045 44.36939117 -0.20594788 43.19852966 -0.1953125 41.9921875 C-0.1924826 40.79643097 -0.18965271 39.60067444 -0.18673706 38.36868286 C-0.17551305 34.53735481 -0.15040431 30.70625778 -0.125 26.875 C-0.11497308 24.28255545 -0.10584673 21.69010725 -0.09765625 19.09765625 C-0.07556646 12.73169158 -0.04206706 6.36586229 0 0 Z " fill="#1E736A" transform="translate(115,288)"/>
<path d="M0 0 C0.99 0.33 1.98 0.66 3 1 C2.05125 1.7425 1.1025 2.485 0.125 3.25 C-2.32532401 5.27845219 -3.87325363 6.9577848 -5 10 C-6.32 10 -7.64 10 -9 10 C-8.7416116 6.51175659 -7.73533264 5.75785753 -5.0625 3.3125 C-2 1 -2 1 0 0 Z " fill="#1D9A7E" transform="translate(130,141)"/>
<path d="M0 0 C4.31392226 0.4793247 6.16569547 1.7457985 9 5 C7.68 5.33 6.36 5.66 5 6 C4.67 7.65 4.34 9.3 4 11 C3.34 11 2.68 11 2 11 C1.93941406 10.37351563 1.87882812 9.74703125 1.81640625 9.1015625 C1.73261719 8.28429687 1.64882813 7.46703125 1.5625 6.625 C1.48128906 5.81289062 1.40007812 5.00078125 1.31640625 4.1640625 C1.10909886 1.95727195 1.10909886 1.95727195 0 0 Z " fill="#09504B" transform="translate(368,140)"/>
<path d="M0 0 C1.32 0.33 2.64 0.66 4 1 C4 1.66 4 2.32 4 3 C3.01 3.33 2.02 3.66 1 4 C-0.70586575 5.62652316 -2.3777546 7.29006566 -4 9 C-4.99 8.34 -5.98 7.68 -7 7 C-7 6.34 -7 5.68 -7 5 C-6.21625 4.731875 -5.4325 4.46375 -4.625 4.1875 C-1.71885077 3.15185568 -1.71885077 3.15185568 0 0 Z " fill="#149076" transform="translate(168,169)"/>
<path d="M0 0 C0.66 0.33 1.32 0.66 2 1 C1.38125 1.556875 0.7625 2.11375 0.125 2.6875 C-2.10660858 4.83195344 -2.10660858 4.83195344 -2.9375 7.4375 C-4.30580857 10.7375383 -6.39702545 12.60252344 -9 15 C-8.61731407 8.87702516 -4.1716037 4.1716037 0 0 Z " fill="#0E4943" transform="translate(124,143)"/>
<path d="M0 0 C0.33 0.66 0.66 1.32 1 2 C1.66 2 2.32 2 3 2 C3.36351563 2.77923828 3.36351563 2.77923828 3.734375 3.57421875 C5.77136078 7.81271608 7.87828828 11.43232946 11 15 C6.1482213 12.94772918 3.71284323 9.39262233 1 5 C0.125 2 0.125 2 0 0 Z " fill="#083334" transform="translate(115,342)"/>
<path d="M0 0 C1.4540625 0.0309375 1.4540625 0.0309375 2.9375 0.0625 C-1.66618766 3.1316251 -4.77449708 3.18576774 -10.1875 3.125 C-10.94160156 3.12048828 -11.69570313 3.11597656 -12.47265625 3.11132812 C-14.33597127 3.09953499 -16.19924555 3.08159942 -18.0625 3.0625 C-18.0625 2.7325 -18.0625 2.4025 -18.0625 2.0625 C-17.06347656 2.00191406 -16.06445312 1.94132812 -15.03515625 1.87890625 C-13.74480469 1.79511719 -12.45445312 1.71132813 -11.125 1.625 C-9.83722656 1.54378906 -8.54945313 1.46257812 -7.22265625 1.37890625 C-3.69545663 1.02575029 -3.51377698 0.07170973 0 0 Z " fill="#051D28" transform="translate(370.0625,357.9375)"/>
<path d="M0 0 C0.33 0 0.66 0 1 0 C1.13277344 0.97582031 1.26554688 1.95164062 1.40234375 2.95703125 C1.57894531 4.22933594 1.75554687 5.50164062 1.9375 6.8125 C2.11152344 8.07707031 2.28554687 9.34164063 2.46484375 10.64453125 C2.90392455 13.98321703 2.90392455 13.98321703 4 17 C3.01 17 2.02 17 1 17 C0.1679418 11.27959989 -0.12036664 5.77759884 0 0 Z " fill="#063A3A" transform="translate(157,299)"/>
<path d="M0 0 C2.5 2.3125 2.5 2.3125 5 5 C5 5.99 5 6.98 5 8 C2.5 6.25 2.5 6.25 0 4 C0 2.68 0 1.36 0 0 Z " fill="#0B383C" transform="translate(377,145)"/>
<path d="M0 0 C2.0625 0.4375 2.0625 0.4375 4 1 C3.01 2.485 3.01 2.485 2 4 C-1.125 4.1875 -1.125 4.1875 -4 4 C-3.34 3.67 -2.68 3.34 -2 3 C-1.67 2.34 -1.34 1.68 -1 1 C-0.67 0.67 -0.34 0.34 0 0 Z " fill="#0A323C" transform="translate(372,354)"/>
<path d="M0 0 C1.65 0 3.3 0 5 0 C5 0.66 5 1.32 5 2 C4.34 2 3.68 2 3 2 C2.34 3.32 1.68 4.64 1 6 C0.67 6 0.34 6 0 6 C0 4.02 0 2.04 0 0 Z " fill="#0F584D" transform="translate(161,177)"/>
<path d="M0 0 C0.928125 0.0825 1.85625 0.165 2.8125 0.25 C0.62972366 2.43277634 -1.45877689 3.81742037 -4.1875 5.25 C-4.8475 4.92 -5.5075 4.59 -6.1875 4.25 C-4.36434338 1.00883268 -3.82500054 0.30000004 0 0 Z " fill="#09453C" transform="translate(172.1875,171.75)"/>
</svg>
